<svg width="16" height="16" viewBox="0 0 16 16" fill="none" xmlns="http://www.w3.org/2000/svg">
<rect width="16" height="16" rx="3" fill="#C4A97D"/>
<path d="M4.96387 12V4H8.26855C8.86751 4 9.38444 4.10807 9.81934 4.32422C10.2568 4.53776 10.5941 4.84505 10.8311 5.24609C11.068 5.64453 11.1865 6.11719 11.1865 6.66406C11.1865 7.21875 11.0654 7.6901 10.8232 8.07812C10.5811 8.46354 10.2373 8.75781 9.79199 8.96094C9.34668 9.16146 8.81934 9.26172 8.20996 9.26172H6.12012V7.73828H7.85059C8.14225 7.73828 8.38574 7.70052 8.58105 7.625C8.77897 7.54687 8.92871 7.42969 9.03027 7.27344C9.13184 7.11458 9.18262 6.91146 9.18262 6.66406C9.18262 6.41667 9.13184 6.21224 9.03027 6.05078C8.92871 5.88672 8.77897 5.76432 8.58105 5.68359C8.38314 5.60026 8.13965 5.55859 7.85059 5.55859H6.89746V12H4.96387ZM9.46777 8.34375L11.46 12H9.35059L7.39746 8.34375H9.46777Z" fill="#F9F8F6"/>
</svg>
